<svg id="Layer_1" data-name="Layer 1" xmlns="http://www.w3.org/2000/svg" viewBox="0 0 296.9 62.94"><defs><style>.cls-1,.cls-2{fill:#fff;}.cls-2{fill-opacity:0.58;}</style></defs><title>cals</title><g id="Page-1"><g id="Desktop-HD"><g id="uw-logo-text-_-Wisconsin-_-UNIVERSITY-OF-WISCON" data-name="uw-logo-text-+-Wisconsin-+-UNIVERSITY-OF-WISCON"><g id="bw_logo" data-name="bw logo"><path id="Fill-1" class="cls-1" d="M32.94,36.65h0a2.06,2.06,0,0,1,.69-0.11,2.55,2.55,0,0,1,.4,0,1.4,1.4,0,0,1,1,.58L35,37.81h0.09l0.24-1h0a1.72,1.72,0,0,0-1.67-1,1.21,1.21,0,0,0-.94.29l-0.31,1,0.08,0,0.42-.52" transform="translate(-0.05 -0.26)"/><path id="Fill-2" class="cls-1" d="M34.36,39.84l0,0.67h0.09l0.3-.94h0A1.79,1.79,0,0,0,33,38.44a1,1,0,0,0-.78.23l-0.38,1,0.07,0,0.45-.48h0a1.69,1.69,0,0,1,.52-0.07,2.56,2.56,0,0,1,.57.07,1.44,1.44,0,0,1,.92.65" transform="translate(-0.05 -0.26)"/><path id="Fill-3" class="cls-1" d="M33.58,31.7h0a2.38,2.38,0,0,1,1.13-.19,1.51,1.51,0,0,1,1.06.5L36,32.66v0.09h0.09l0.11-1.09h0a1.74,1.74,0,0,0-1.6-.84,1.56,1.56,0,0,0-1.21.4l-0.18,1,0.09,0,0.34-.55" transform="translate(-0.05 -0.26)"/><path id="Fill-4" class="cls-1" d="M33.36,34.18h0A2,2,0,0,1,34.43,34a1.62,1.62,0,0,1,1,.51l0,0h0l0.14,0.65h0.09l0.14-1h0a1.78,1.78,0,0,0-1.67-.9,1.25,1.25,0,0,0-1.07.36l-0.22,1,0.09,0,0.35-.54" transform="translate(-0.05 -0.26)"/><path id="Fill-5" class="cls-1" d="M6.06,36.53a2,2,0,0,1,.69.11l0.43,0.53,0.08,0-0.33-1A1.26,1.26,0,0,0,6,35.84a1.72,1.72,0,0,0-1.67,1h0l0.24,1H4.65l0.06-.65h0a1.41,1.41,0,0,1,1-.58,2.53,2.53,0,0,1,.4,0" transform="translate(-0.05 -0.26)"/><path id="Fill-6" class="cls-1" d="M6.83,39.12a1.74,1.74,0,0,1,.52.07l0.47,0.49,0.08,0-0.39-1a1.06,1.06,0,0,0-.77-0.21,1.79,1.79,0,0,0-1.8,1.12h0l0.3,0.94H5.31l0-.65h0a1.41,1.41,0,0,1,.91-0.65,2.57,2.57,0,0,1,.58-0.07" transform="translate(-0.05 -0.26)"/><path id="Fill-7" class="cls-1" d="M5,31.51a2.41,2.41,0,0,1,1.13.19l0.35,0.56,0.09,0-0.19-1a1.65,1.65,0,0,0-1.2-.38,1.74,1.74,0,0,0-1.6.83h0l0.1,1H3.74L3.91,32A1.5,1.5,0,0,1,5,31.51" transform="translate(-0.05 -0.26)"/><path id="Fill-8" class="cls-1" d="M6.33,34.18l0.36,0.56,0.08,0-0.22-1a1.24,1.24,0,0,0-1.06-.36,1.78,1.78,0,0,0-1.66.89h0l0.14,1H4l0.15-.65h0l0,0a1.62,1.62,0,0,1,1-.51,2,2,0,0,1,1.06.15" transform="translate(-0.05 -0.26)"/><path id="Fill-9" class="cls-1" d="M39.4,22.9c-0.55-5.37-2-9.85-4.28-12.94a10.5,10.5,0,0,0-8.59-4.76C25.93,3.34,23.7,3.06,23.41,3A3.86,3.86,0,0,0,19.88.26h-0.1A3.86,3.86,0,0,0,16.26,3c-0.3,0-2.52.31-3.12,2.16A10.49,10.49,0,0,0,4.55,10C2.3,13,.83,17.52.27,22.9a51,51,0,0,0,4,24.71c3.54,8.18,8.59,13.25,14.59,14.66a2.26,2.26,0,0,0,1,.93h0.1a2.28,2.28,0,0,0,1-.93c6-1.41,11-6.48,14.59-14.66A51,51,0,0,0,39.4,22.9h0ZM38.82,23c0,0.22,0,.44.06,0.66a4.66,4.66,0,0,0-1.64.34c-0.42-5.15-1.81-9.38-3.86-12.21a4.47,4.47,0,0,1,1.44-1.15c2.1,3,3.48,7.25,4,12.35h0ZM33.68,42.91a2.24,2.24,0,0,0-1.13-1.45,2.43,2.43,0,0,0-1-.26,1.82,1.82,0,0,0-.81.19,34.14,34.14,0,0,0,2-11.2v0a1.74,1.74,0,0,1,1.74-1.08,2.3,2.3,0,0,1,2.29,1.73h0a48.46,48.46,0,0,1-3,13.5,3.92,3.92,0,0,0-.11-1.43h0ZM19.83,57.41h0c-0.48,0-1.63.23-1.8,1.11v0.05l0,0.1-0.05,0a13.47,13.47,0,0,1-2.64-1.33A8.27,8.27,0,0,0,17.93,54h0a10.42,10.42,0,0,0,1.42.78l0.49,0.21,0.49-.22a10.41,10.41,0,0,0,1.47-.82,8.19,8.19,0,0,0,2.63,3.4,13.53,13.53,0,0,1-2.68,1.36l-0.05,0,0-.1v0c-0.17-.89-1.32-1.1-1.81-1.11h0Zm-13.93-13a48.37,48.37,0,0,1-3-13.51V30.84a2.3,2.3,0,0,1,2.29-1.73A1.74,1.74,0,0,1,7,30.18H7A34.12,34.12,0,0,0,9,41.4a1.82,1.82,0,0,0-.81-0.19,2.45,2.45,0,0,0-1,.26A2.22,2.22,0,0,0,6,42.89a4,4,0,0,0-.11,1.52h0Zm7.72-33a0.21,0.21,0,0,0-.32-0.08A1.58,1.58,0,0,0,13,13a0.79,0.79,0,0,0,.57.71,0.66,0.66,0,0,0,.47-0.24,3,3,0,0,0,.59-2c-0.09-1.8-1.11-1.89-1.31-1.89-0.68,0-1.42,1.1-1.42,2.73s0.61,2.84,1.41,2.92c0.32,0,.67.05,1,0.05a5.56,5.56,0,0,0,4.05-1.35,3.86,3.86,0,0,0,.84-3.1A5.94,5.94,0,0,0,16.34,6,1,1,0,0,1,17,5.75c1.15,0,2.51,1.83,2.63,2.4a0.29,0.29,0,0,0,.15.22h0.1A0.29,0.29,0,0,0,20,8.15c0.11-.57,1.47-2.4,2.63-2.4a1,1,0,0,1,.68.26,6,6,0,0,0-2.92,4.77,3.87,3.87,0,0,0,.84,3.1,5.56,5.56,0,0,0,4.05,1.35c0.34,0,.67,0,1-0.05,0.8-.08,1.41-1.33,1.41-2.92S27,9.53,26.3,9.53c-0.2,0-1.22.09-1.31,1.89a3,3,0,0,0,.59,2,0.66,0.66,0,0,0,.47.24A0.79,0.79,0,0,0,26.63,13a1.58,1.58,0,0,0-.26-1.63,0.21,0.21,0,0,0-.32.08,0.27,0.27,0,0,0,.11.3,1.14,1.14,0,0,1,.05.88,0.23,0.23,0,0,1-.17.18c-0.12,0-.59-0.21-0.59-1.23s0.58-1.23.83-1.23,1,0.46,1,1.95a3.87,3.87,0,0,1-.3,1.55,1,1,0,0,1-1.54.49,3.88,3.88,0,0,1-1.11-3.69,2.23,2.23,0,0,1,2.35-1.86h0a7.88,7.88,0,0,1,6.16,3.46c-0.32.77-1.46,2.82-5.09,4.91a7.48,7.48,0,0,0-3.4-1.1l-0.47,0a10.53,10.53,0,0,0-2.82.46,6,6,0,0,1-1.17.25h0a5.93,5.93,0,0,1-1.19-.25A10.49,10.49,0,0,0,15.82,16l-0.47,0a7.5,7.5,0,0,0-3.4,1.1C8.27,15,7.14,13,6.83,12.22A7.88,7.88,0,0,1,13,8.75h0a2.23,2.23,0,0,1,2.35,1.86,3.89,3.89,0,0,1-1.11,3.69,1,1,0,0,1-1.55-.49,3.82,3.82,0,0,1-.3-1.55c0-1.49.7-1.95,1-1.95s0.83,0.12.83,1.23-0.46,1.23-.58,1.23a0.23,0.23,0,0,1-.17-0.18,1.12,1.12,0,0,1,.05-0.88,0.27,0.27,0,0,0,.11-0.3h0ZM13.35,25.79l3.19,13.69,2.78-18V21.44H20v0.07L23.77,39.7,27,25.77a0.91,0.91,0,0,0-.15-0.8,0.84,0.84,0,0,0-.59-0.2H26.1l-0.27,0V23.48h4v1.37l-0.26,0H29.55a0.7,0.7,0,0,0-.73.54L23.59,49.05H22.88V49L19.6,32.14,17,49v0.07H16.23V49L10.73,25.38a0.84,0.84,0,0,0-.68-0.6l-0.2,0V23.48h4.5v1.3l-0.27,0a0.73,0.73,0,0,0-.52.16,0.93,0.93,0,0,0-.22.69c0,0.06,0,.13,0,0.2h0ZM28,17.31c3.44-2,4.64-3.88,5-4.81,0.18,0.25.36,0.51,0.53,0.78a24.42,24.42,0,0,1,3.22,11.3,11.41,11.41,0,0,1-4.41,1.23C31.93,23,30.8,19.27,28,17.31h0Zm-16.32,0c-2.79,2-3.92,5.72-4.38,8.49a11.42,11.42,0,0,1-4.42-1.23,24.45,24.45,0,0,1,3.22-11.3c0.17-.27.35-0.53,0.53-0.78,0.4,0.94,1.61,2.84,5.05,4.82h0ZM7.25,26.11A24.54,24.54,0,0,0,7,28.64c0,0.22,0,.45,0,0.67a2.3,2.3,0,0,0-1.75-.73A2.93,2.93,0,0,0,2.85,29.8a44.36,44.36,0,0,1,0-4.89,11.6,11.6,0,0,0,4.4,1.2h0ZM6.54,43a1.79,1.79,0,0,1,1-1.09,1.52,1.52,0,0,1,.66-0.16,1.38,1.38,0,0,1,1.29.91,1.09,1.09,0,0,1-.51,1.25,1.11,1.11,0,0,1-.53.16,0.66,0.66,0,0,1-.63-0.45A0.55,0.55,0,0,1,8,43a0.26,0.26,0,0,1,.37.09,0.18,0.18,0,0,0,.3,0,0.23,0.23,0,0,0,0-.21,0.66,0.66,0,0,0-.78-0.4,1.06,1.06,0,0,0-.7,1.2,1.17,1.17,0,0,0,1.12.89,1.66,1.66,0,0,0,.51-0.09,1.57,1.57,0,0,0,1.07-.94q0.68,1.41,1.4,2.68A8.15,8.15,0,0,1,7.5,48l-0.2-.4C6.68,46.1,6.13,44.22,6.54,43h0Zm4.92,3.52a22.3,22.3,0,0,0,6.22,7.28v0A8.17,8.17,0,0,1,15,57.16a23.41,23.41,0,0,1-7.37-8.86,8.37,8.37,0,0,0,3.81-1.8h0Zm10.61,7.24a22.38,22.38,0,0,0,6.16-7.22A8.35,8.35,0,0,0,32,48.29a23.45,23.45,0,0,1-7.33,8.83,8,8,0,0,1-2.63-3.4h0Zm6.31-7.48q0.73-1.27,1.4-2.69a1.58,1.58,0,0,0,1.07.94,1.65,1.65,0,0,0,.51.09,1.17,1.17,0,0,0,1.11-.89,1.06,1.06,0,0,0-.7-1.2,0.66,0.66,0,0,0-.78.4,0.24,0.24,0,0,0,0,.21,0.18,0.18,0,0,0,.29,0A0.26,0.26,0,0,1,31.71,43a0.55,0.55,0,0,1,.2.6,0.66,0.66,0,0,1-.63.45,1.13,1.13,0,0,1-1-1.41,1.38,1.38,0,0,1,1.29-.91,1.53,1.53,0,0,1,.66.16,1.78,1.78,0,0,1,1,1.09c0.41,1.22-.11,3-0.72,4.54l-0.24.5a8.19,8.19,0,0,1-3.8-1.77h0Zm6.09-17.66a2.28,2.28,0,0,0-1.76.73c0-.22,0-0.45,0-0.67a24.13,24.13,0,0,0-.25-2.54,11.61,11.61,0,0,0,4.39-1.2,45,45,0,0,1,0,4.87,2.93,2.93,0,0,0-2.36-1.19h0ZM26.61,5.79a8.36,8.36,0,0,1,.87,0,10.17,10.17,0,0,1,7.17,4.53,4.8,4.8,0,0,0-1.45,1.15,8.22,8.22,0,0,0-6.54-3.64,2.94,2.94,0,0,0-2.94,2.63,4.78,4.78,0,0,0,.84,3.65,0.16,0.16,0,0,1,0,.13,0.23,0.23,0,0,1-.2.06,3.94,3.94,0,0,1-2.73-1A3.06,3.06,0,0,1,21,10.84a5.37,5.37,0,0,1,5.65-5.05h0Zm-6.77-5A3,3,0,0,1,22.7,3L22.46,3l-0.32.07a1.78,1.78,0,0,0-1.38-.74,1.92,1.92,0,0,0-.91.25h0a1.93,1.93,0,0,0-.91-0.25,1.78,1.78,0,0,0-1.38.74L17.21,3,17,3A3,3,0,0,1,19.84.74h0Zm1.85,2.53A3.19,3.19,0,0,0,19.94,4.8a0.27,0.27,0,0,1-.1.12,0.25,0.25,0,0,1-.1-0.12A3.21,3.21,0,0,0,18,3.27,1.24,1.24,0,0,1,18.74,3a1.17,1.17,0,0,1,1,.5,0.18,0.18,0,0,0,0,.09l0,0,0,0a0.18,0.18,0,0,0,.05-0.09,1.16,1.16,0,0,1,1-.5,1.24,1.24,0,0,1,.76.27h0Zm-4.9.2A3,3,0,0,1,19.7,5.57a0.38,0.38,0,0,0,.09.18l0,0h0l0,0A0.36,0.36,0,0,0,20,5.57a3.17,3.17,0,0,1,5.82-.33L25,5.37a5.32,5.32,0,0,0-.75.21A1.89,1.89,0,0,0,22.83,5C22.07,5,21,5.38,19.9,7.34a0.08,0.08,0,0,1-.05,0h0a0.09,0.09,0,0,1-.05,0C18.72,5.38,17.6,5,16.84,5a1.89,1.89,0,0,0-1.43.62,5.36,5.36,0,0,0-.75-0.21l-0.79-.13a3,3,0,0,1,2.91-1.77h0ZM12.2,5.83a8.3,8.3,0,0,1,.86,0,5.37,5.37,0,0,1,5.64,5.05A3.06,3.06,0,0,1,18,13.3a3.94,3.94,0,0,1-2.73,1,0.24,0.24,0,0,1-.21-0.06,0.17,0.17,0,0,1,0-.13A4.78,4.78,0,0,0,16,10.51,2.94,2.94,0,0,0,13,7.88a8.22,8.22,0,0,0-6.54,3.64A4.72,4.72,0,0,0,5,10.37,10.17,10.17,0,0,1,12.2,5.83h0ZM0.85,23c0.52-5.1,1.9-9.36,4-12.35a4.44,4.44,0,0,1,1.44,1.15C4.24,14.6,2.85,18.83,2.43,24a4.85,4.85,0,0,0-1.64-.34c0-.22,0-0.44.06-0.66h0ZM4.66,47.16A50.06,50.06,0,0,1,.77,23.94a4.56,4.56,0,0,1,1.64.36c0,0.17,0,.34,0,0.51A48.45,48.45,0,0,0,6,45.86c0.29,0.69.6,1.35,0.92,2a4.8,4.8,0,0,0-1.63.67c-0.21-.44-0.42-0.89-0.62-1.35h0Zm0.75,1.63A4.49,4.49,0,0,1,7,48.13a24.81,24.81,0,0,0,7.34,9.16,4.8,4.8,0,0,0-1.19,1.55,26.83,26.83,0,0,1-7.78-10h0Zm8,10.23a4.46,4.46,0,0,1,1.2-1.56,14.31,14.31,0,0,0,3.28,1.71A6.48,6.48,0,0,0,18,60.31a5.7,5.7,0,0,0,.36,1.12,15.65,15.65,0,0,1-5-2.4h0ZM20.1,62.4a0.45,0.45,0,0,1-.27.17,0.47,0.47,0,0,1-.27-0.17,4.75,4.75,0,0,1-1.1-3.78,1.41,1.41,0,0,1,1.37-.71,1.4,1.4,0,0,1,1.37.71,4.76,4.76,0,0,1-1.1,3.78h0Zm1.18-1a5.72,5.72,0,0,0,.36-1.12,6.76,6.76,0,0,0,.11-1.14,14.36,14.36,0,0,0,3.31-1.73A4.46,4.46,0,0,1,26.27,59a15.65,15.65,0,0,1-5,2.43h0Zm5.23-2.62a4.77,4.77,0,0,0-1.2-1.54,24.81,24.81,0,0,0,7.3-9.11,4.44,4.44,0,0,1,1.61.71,26.84,26.84,0,0,1-7.71,9.95h0ZM35,47.16q-0.32.73-.65,1.43a4.72,4.72,0,0,0-1.61-.71c0.32-.65.64-1.32,0.93-2A48.41,48.41,0,0,0,37.3,24.81c0-.17,0-0.34,0-0.51a4.41,4.41,0,0,1,1.64-.36A50.07,50.07,0,0,1,35,47.16h0Z" transform="translate(-0.05 -0.26)"/></g><path id="UNIVERSITY-OF-WISCON" class="cls-2" d="M51,55.36h-1.1v-0.6a1.81,1.81,0,0,1-1.54.75,1.87,1.87,0,0,1-1.07-.31,1.59,1.59,0,0,1-.67-1,4.54,4.54,0,0,1-.07-1V50.72a4.12,4.12,0,0,0,0-.63,0.69,0.69,0,0,0-.32-0.49h1.47a0.71,0.71,0,0,0-.32.49,4.22,4.22,0,0,0,0,.63v2.54a1.87,1.87,0,0,0,.27,1.12,1.17,1.17,0,0,0,1,.48,1.26,1.26,0,0,0,1.14-.62,1.33,1.33,0,0,0,.15-0.68V50.72a4.22,4.22,0,0,0,0-.63,0.71,0.71,0,0,0-.32-0.49H51a0.71,0.71,0,0,0-.32.49,4.22,4.22,0,0,0,0,.63v3.52a4.22,4.22,0,0,0,0,.63,0.71,0.71,0,0,0,.32.49h0Zm6.06-5.76a0.92,0.92,0,0,0-.33.39,1.86,1.86,0,0,0-.08.64v5a2.36,2.36,0,0,1-1.07-.92l-2.73-3.88v3.49a1.83,1.83,0,0,0,.08.64,0.91,0.91,0,0,0,.32.39H51.88A0.92,0.92,0,0,0,52.21,55a1.86,1.86,0,0,0,.08-0.64v-3.7A1.83,1.83,0,0,0,52.21,50a0.91,0.91,0,0,0-.32-0.39H53a2.54,2.54,0,0,0,.18.32L56.09,54V50.63A1.79,1.79,0,0,0,56,50a1,1,0,0,0-.33-0.39h1.39Zm2.32,5.76H57.91a0.69,0.69,0,0,0,.32-0.49,4.12,4.12,0,0,0,0-.63V50.72a4.12,4.12,0,0,0,0-.63,0.69,0.69,0,0,0-.32-0.49h1.47a0.69,0.69,0,0,0-.32.49,4.12,4.12,0,0,0,0,.63v3.52a4.12,4.12,0,0,0,0,.63,0.69,0.69,0,0,0,.32.49h0Zm5.32-5.76-2.08,6a3.61,3.61,0,0,1-.69-0.6,3.07,3.07,0,0,1-.32-0.74l-1.05-3.2Q60.29,50.2,60.2,50a1.47,1.47,0,0,0-.31-0.41H61a0.58,0.58,0,0,0,0,.1,3,3,0,0,0,.18.71l1.28,3.91,1.1-3.24a3.73,3.73,0,0,0,.24-1,0.5,0.5,0,0,0-.28-0.5h1.18Zm4.2,4.61-0.36,1.14H65.31a0.69,0.69,0,0,0,.32-0.49,4.31,4.31,0,0,0,0-.64V50.72a4.22,4.22,0,0,0,0-.63,0.69,0.69,0,0,0-.32-0.49H67.9a0.8,0.8,0,0,0,.29,0v1a1,1,0,0,0-.43-0.29,1.71,1.71,0,0,0-.52-0.06,4.6,4.6,0,0,0-.8.06v1.63h1a0.57,0.57,0,0,0,.27-0.06v0.93a0.69,0.69,0,0,0-.61-0.24H66.44v2.08a5.28,5.28,0,0,0,1,.09,2.28,2.28,0,0,0,1.52-.5h0Zm5.21,1.14-0.72,0a1,1,0,0,1-.57-0.17,3.51,3.51,0,0,1-.63-0.7,16,16,0,0,1-1.36-2.18,1.3,1.3,0,0,0,1.3-1.25,1,1,0,0,0-.26-0.7,0.91,0.91,0,0,0-.68-0.27,2.73,2.73,0,0,0-.55.07v4a4.12,4.12,0,0,0,0,.63,0.69,0.69,0,0,0,.32.49H69.53a0.69,0.69,0,0,0,.32-0.49,4.12,4.12,0,0,0,0-.63V50.72a4.12,4.12,0,0,0,0-.63,0.69,0.69,0,0,0-.32-0.49h1.82a1.74,1.74,0,0,1,1.15.34,1.43,1.43,0,0,1,.16,2,1.8,1.8,0,0,1-.91.58,21.65,21.65,0,0,0,1.39,1.93,4.06,4.06,0,0,0,1,.89h0ZM78,53.67a1.7,1.7,0,0,1-.48,1.18,2.11,2.11,0,0,1-1.63.65,3.6,3.6,0,0,1-1.37-.27l-0.24-1.08a2.54,2.54,0,0,0,1.71.7,1.32,1.32,0,0,0,.83-0.26,0.78,0.78,0,0,0,.34-0.64,0.84,0.84,0,0,0-.26-0.62,4.78,4.78,0,0,0-1-.61,4.43,4.43,0,0,1-1.07-.7,1.39,1.39,0,0,1-.41-1,1.37,1.37,0,0,1,.53-1.13,2.19,2.19,0,0,1,1.41-.42,3.94,3.94,0,0,1,1.19.19v1a1.62,1.62,0,0,0-1.23-.57,1.15,1.15,0,0,0-.74.23,0.76,0.76,0,0,0-.06,1.13,4.36,4.36,0,0,0,.93.58,5.89,5.89,0,0,1,1.14.7,1.22,1.22,0,0,1,.42,1h0Zm2.31,1.68H78.8a0.69,0.69,0,0,0,.32-0.49,4.12,4.12,0,0,0,0-.63V50.72a4.12,4.12,0,0,0,0-.63,0.69,0.69,0,0,0-.32-0.49h1.47a0.69,0.69,0,0,0-.32.49,4.12,4.12,0,0,0,0,.63v3.52a4.12,4.12,0,0,0,0,.63,0.69,0.69,0,0,0,.32.49h0Zm4.57-5.81-0.25,1a0.51,0.51,0,0,0-.31-0.29,1.49,1.49,0,0,0-.42,0H83.19v4a1.83,1.83,0,0,0,.08.63,1,1,0,0,0,.33.39H82.06a0.69,0.69,0,0,0,.32-0.49,4.22,4.22,0,0,0,0-.63v-4a6.13,6.13,0,0,0-.63,0,2.11,2.11,0,0,0-.53,0,1.32,1.32,0,0,0-.48.28l0.29-1a1.15,1.15,0,0,0,.4.06h3.23l0.15,0h0ZM90,49.6L88,52.84v1.49a2,2,0,0,0,.06.57,1.27,1.27,0,0,0,.33.46h-1.5a0.8,0.8,0,0,0,.3-0.5,3.94,3.94,0,0,0,0-.62v-1.4l-1.34-2.43a3.26,3.26,0,0,0-.32-0.5,1.92,1.92,0,0,0-.37-0.31l0.88,0a0.38,0.38,0,0,1,.24.06,1.67,1.67,0,0,1,.23.36l1.17,2.15,1-1.67A0.87,0.87,0,0,0,88.89,50a0.51,0.51,0,0,0-.28-0.44H90Zm8.29,2.84a3,3,0,0,1-.84,2.17,2.7,2.7,0,0,1-2,.89,2.67,2.67,0,0,1-2-.87,3,3,0,0,1-.83-2.12,3,3,0,0,1,.84-2.18,2.79,2.79,0,0,1,2.1-.88,2.58,2.58,0,0,1,2,.86,2.85,2.85,0,0,1,.58,1,3.34,3.34,0,0,1,.21,1.16h0Zm-0.88.14a2.85,2.85,0,0,0-.53-1.74,1.74,1.74,0,0,0-1.47-.76,1.78,1.78,0,0,0-1.4.63,2.43,2.43,0,0,0-.55,1.65A2.87,2.87,0,0,0,94,54.22a1.66,1.66,0,0,0,1.36.65,1.78,1.78,0,0,0,1.42-.64,2.46,2.46,0,0,0,.55-1.66h0Zm4.62-2a1.08,1.08,0,0,0-.43-0.29,2,2,0,0,0-.52,0,4.81,4.81,0,0,0-.81.06v1.63h1a0.56,0.56,0,0,0,.27-0.06v0.93a0.68,0.68,0,0,0-.61-0.24h-0.69v1.7a4.12,4.12,0,0,0,0,.63,0.69,0.69,0,0,0,.32.49H99.09a0.69,0.69,0,0,0,.32-0.49,4.12,4.12,0,0,0,0-.63V50.72a4.12,4.12,0,0,0,0-.63,0.69,0.69,0,0,0-.32-0.49h2.59a0.8,0.8,0,0,0,.29,0v1Zm9.74-1-1.64,6-0.28-.22a2.26,2.26,0,0,1-.47-0.43,2.57,2.57,0,0,1-.25-0.66l-0.88-3.11L107,55.6l-0.36-.28a1.68,1.68,0,0,1-.41-0.4A2.81,2.81,0,0,1,106,54.3l-1-3.43A5.62,5.62,0,0,0,104.7,50a1.41,1.41,0,0,0-.33-0.42h1.14v0.11a1.69,1.69,0,0,0,.08.41l1.21,4.22,1-3.48a3,3,0,0,0,.13-0.74,0.66,0.66,0,0,0-.31-0.53h1.08a0.89,0.89,0,0,0,0,.17,2.39,2.39,0,0,0,.11.6l1.13,4L110.81,51A3.47,3.47,0,0,0,111,50.2a0.6,0.6,0,0,0-.42-0.6h1.17Zm2.11,5.76h-1.47a0.69,0.69,0,0,0,.32-0.49,4.12,4.12,0,0,0,0-.63V50.72a4.12,4.12,0,0,0,0-.63,0.69,0.69,0,0,0-.32-0.49h1.47a0.69,0.69,0,0,0-.32.49,4.12,4.12,0,0,0,0,.63v3.52a4.12,4.12,0,0,0,0,.63,0.69,0.69,0,0,0,.32.49h0Zm4.54-1.68a1.7,1.7,0,0,1-.48,1.18,2.11,2.11,0,0,1-1.63.65,3.6,3.6,0,0,1-1.37-.27l-0.24-1.08a2.54,2.54,0,0,0,1.71.7,1.32,1.32,0,0,0,.83-0.26,0.78,0.78,0,0,0,.34-0.64,0.84,0.84,0,0,0-.26-0.62,4.78,4.78,0,0,0-1-.61,4.43,4.43,0,0,1-1.07-.7,1.39,1.39,0,0,1-.41-1,1.37,1.37,0,0,1,.53-1.13,2.19,2.19,0,0,1,1.41-.42,3.94,3.94,0,0,1,1.19.19v1a1.62,1.62,0,0,0-1.23-.57,1.15,1.15,0,0,0-.74.23,0.76,0.76,0,0,0-.06,1.13,4.36,4.36,0,0,0,.93.58,5.89,5.89,0,0,1,1.14.7,1.22,1.22,0,0,1,.42,1h0Zm5.3,0.55-0.39,1a2.9,2.9,0,0,1-1.21.26,2.86,2.86,0,0,1-2.14-.82,3,3,0,0,1-.81-2.18,3.11,3.11,0,0,1,.78-2.17,2.55,2.55,0,0,1,2-.86,5.45,5.45,0,0,1,1.4.22v1a2.63,2.63,0,0,0-1.42-.48,1.69,1.69,0,0,0-1.34.6,2.26,2.26,0,0,0-.52,1.54,2.7,2.7,0,0,0,.57,1.74,1.72,1.72,0,0,0,1.39.71,3.43,3.43,0,0,0,1.7-.57h0Zm6.14-1.78a3,3,0,0,1-.84,2.17,2.7,2.7,0,0,1-2,.89,2.67,2.67,0,0,1-2-.87,3,3,0,0,1-.83-2.12,3,3,0,0,1,.84-2.18,2.79,2.79,0,0,1,2.1-.88,2.58,2.58,0,0,1,2,.86,2.85,2.85,0,0,1,.58,1,3.34,3.34,0,0,1,.21,1.16h0Zm-0.88.14a2.85,2.85,0,0,0-.53-1.74,1.74,1.74,0,0,0-1.47-.76,1.78,1.78,0,0,0-1.4.63,2.43,2.43,0,0,0-.55,1.65,2.87,2.87,0,0,0,.63,1.86,1.66,1.66,0,0,0,1.36.65,1.78,1.78,0,0,0,1.42-.64,2.46,2.46,0,0,0,.55-1.66h0Zm6.87-3a0.92,0.92,0,0,0-.33.39,1.86,1.86,0,0,0-.08.64v5a2.36,2.36,0,0,1-1.07-.92l-2.73-3.88v3.49a1.83,1.83,0,0,0,.08.64,0.91,0.91,0,0,0,.32.39h-1.39a0.92,0.92,0,0,0,.33-0.39,1.86,1.86,0,0,0,.08-0.64v-3.7a1.83,1.83,0,0,0-.08-0.64,0.91,0.91,0,0,0-.32-0.39h1.14a2.54,2.54,0,0,0,.18.32L134.8,54V50.63a1.79,1.79,0,0,0-.08-0.64,1,1,0,0,0-.33-0.39h1.39Zm4.45,4.07a1.7,1.7,0,0,1-.48,1.18,2.11,2.11,0,0,1-1.63.65,3.6,3.6,0,0,1-1.37-.27l-0.24-1.08a2.54,2.54,0,0,0,1.71.7,1.32,1.32,0,0,0,.83-0.26,0.78,0.78,0,0,0,.34-0.64,0.84,0.84,0,0,0-.26-0.62,4.78,4.78,0,0,0-1-.61,4.43,4.43,0,0,1-1.07-.7,1.39,1.39,0,0,1-.41-1,1.37,1.37,0,0,1,.53-1.13,2.19,2.19,0,0,1,1.41-.42,3.94,3.94,0,0,1,1.19.19v1a1.62,1.62,0,0,0-1.23-.57,1.15,1.15,0,0,0-.74.23,0.76,0.76,0,0,0-.06,1.13,4.36,4.36,0,0,0,.93.58,5.89,5.89,0,0,1,1.14.7,1.22,1.22,0,0,1,.42,1h0Zm2.31,1.68h-1.47a0.69,0.69,0,0,0,.32-0.49,4.12,4.12,0,0,0,0-.63V50.72a4.12,4.12,0,0,0,0-.63,0.69,0.69,0,0,0-.32-0.49h1.47a0.69,0.69,0,0,0-.32.49,4.12,4.12,0,0,0,0,.63v3.52a4.12,4.12,0,0,0,0,.63,0.69,0.69,0,0,0,.32.49h0Zm6.06-5.76a0.92,0.92,0,0,0-.33.39,1.86,1.86,0,0,0-.08.64v5a2.36,2.36,0,0,1-1.07-.92l-2.73-3.88v3.49a1.83,1.83,0,0,0,.08.64,0.91,0.91,0,0,0,.32.39h-1.39a0.92,0.92,0,0,0,.33-0.39,1.86,1.86,0,0,0,.08-0.64v-3.7a1.83,1.83,0,0,0-.08-0.64,0.91,0.91,0,0,0-.32-0.39h1.14a2.54,2.54,0,0,0,.18.32L147.62,54V50.63a1.79,1.79,0,0,0-.08-0.64,1,1,0,0,0-.33-0.39h1.39Zm3.11,3.12-0.42.63a0.37,0.37,0,0,1-.33.16H150a2,2,0,0,0-.71.11l0.44-.62a0.38,0.38,0,0,1,.34-0.15h0.83a2,2,0,0,0,.78-0.12h0Zm7.61,2.63h-1.5a0.66,0.66,0,0,0,.32-0.66q0-.16,0-0.49l-0.41-3.74-1.75,5a2.86,2.86,0,0,1-.39-0.43,2.64,2.64,0,0,1-.25-0.53l-1.53-4-0.46,3.86a4.43,4.43,0,0,0,0,.46,0.73,0.73,0,0,0,.31.58h-1.28a2,2,0,0,0,.42-1.15l0.45-3.68q0-.36,0-0.45A0.61,0.61,0,0,0,153,49.6h1.36a0.9,0.9,0,0,0,.07.31l1.5,4,1.26-3.63a2.15,2.15,0,0,0,.15-0.63h1.35a0.57,0.57,0,0,0-.24.55,2.66,2.66,0,0,0,0,.31l0.48,3.86A3.36,3.36,0,0,0,159,55a1,1,0,0,0,.28.38h0Zm6,0h-1.61A0.51,0.51,0,0,0,164,55a2.23,2.23,0,0,0-.13-0.49l-0.46-1.33h-2L161,54.52a1.46,1.46,0,0,0-.09.45,0.47,0.47,0,0,0,.28.39h-1.43a1.4,1.4,0,0,0,.39-0.4,5,5,0,0,0,.33-0.78l1.37-3.84a1.26,1.26,0,0,0,.09-0.4,0.39,0.39,0,0,0-.24-0.34h1.24l1.64,4.58a3.88,3.88,0,0,0,.34.76,1.44,1.44,0,0,0,.41.41h0Zm-2.12-2.73-0.79-2.29-0.8,2.29h1.59Zm7.48-.21a3.19,3.19,0,0,1-.41,1.59,2.53,2.53,0,0,1-1.08,1.06,5.05,5.05,0,0,1-2.06.29h-1.25a1.1,1.1,0,0,0,.28-0.39,3.12,3.12,0,0,0,.07-0.77V50.72a4.12,4.12,0,0,0,0-.63,0.69,0.69,0,0,0-.32-0.49h1.91a2.85,2.85,0,0,1,2,.72,2.76,2.76,0,0,1,.87,2.11h0Zm-0.86.09a2.54,2.54,0,0,0-.54-1.67,1.9,1.9,0,0,0-1.56-.66,3.39,3.39,0,0,0-.72.09v4.37a2.76,2.76,0,0,0,.58.06,2.27,2.27,0,0,0,1.48-.42,2.17,2.17,0,0,0,.76-1.77h0ZM173,55.36h-1.47a0.69,0.69,0,0,0,.32-0.49,4.12,4.12,0,0,0,0-.63V50.72a4.12,4.12,0,0,0,0-.63,0.69,0.69,0,0,0-.32-0.49H173a0.69,0.69,0,0,0-.32.49,4.12,4.12,0,0,0,0,.63v3.52a4.12,4.12,0,0,0,0,.63,0.69,0.69,0,0,0,.32.49h0Zm4.54-1.68a1.7,1.7,0,0,1-.48,1.18,2.11,2.11,0,0,1-1.63.65,3.6,3.6,0,0,1-1.37-.27l-0.24-1.08a2.54,2.54,0,0,0,1.71.7,1.32,1.32,0,0,0,.83-0.26,0.78,0.78,0,0,0,.34-0.64,0.84,0.84,0,0,0-.26-0.62,4.78,4.78,0,0,0-1-.61,4.43,4.43,0,0,1-1.07-.7,1.39,1.39,0,0,1-.41-1,1.37,1.37,0,0,1,.53-1.13,2.19,2.19,0,0,1,1.41-.42,3.94,3.94,0,0,1,1.19.19v1a1.62,1.62,0,0,0-1.23-.57,1.15,1.15,0,0,0-.74.23,0.76,0.76,0,0,0-.06,1.13A4.36,4.36,0,0,0,176,52a5.89,5.89,0,0,1,1.14.7,1.22,1.22,0,0,1,.42,1h0ZM184,52.44a3,3,0,0,1-.84,2.17,2.7,2.7,0,0,1-2,.89,2.67,2.67,0,0,1-2-.87,3,3,0,0,1-.83-2.12,3,3,0,0,1,.84-2.18,2.79,2.79,0,0,1,2.1-.88,2.58,2.58,0,0,1,2,.86,2.85,2.85,0,0,1,.58,1,3.34,3.34,0,0,1,.21,1.16h0Zm-0.88.14a2.85,2.85,0,0,0-.53-1.74,1.74,1.74,0,0,0-1.47-.76,1.78,1.78,0,0,0-1.4.63,2.43,2.43,0,0,0-.55,1.65,2.87,2.87,0,0,0,.63,1.86,1.66,1.66,0,0,0,1.36.65,1.78,1.78,0,0,0,1.42-.64,2.46,2.46,0,0,0,.55-1.66h0Zm6.87-3a0.92,0.92,0,0,0-.33.39,1.86,1.86,0,0,0-.08.64v5a2.36,2.36,0,0,1-1.07-.92l-2.73-3.88v3.49a1.83,1.83,0,0,0,.08.64,0.91,0.91,0,0,0,.32.39h-1.39a0.92,0.92,0,0,0,.33-0.39,1.86,1.86,0,0,0,.08-0.64v-3.7a1.83,1.83,0,0,0-.08-0.64,0.91,0.91,0,0,0-.32-0.39h1.14a2.54,2.54,0,0,0,.18.32L189,54V50.63a1.79,1.79,0,0,0-.08-0.64,1,1,0,0,0-.33-0.39H190Z" transform="translate(-0.05 -0.26)"/><path id="College-of-" class="cls-1" d="M54.35,16.53l-0.66,1.53a5.42,5.42,0,0,1-2,.39A5.17,5.17,0,0,1,48,17.21a4.22,4.22,0,0,1-1.36-3.28A4.38,4.38,0,0,1,48,10.66a4.57,4.57,0,0,1,3.34-1.3,10.27,10.27,0,0,1,2.37.34v1.51a4.82,4.82,0,0,0-2.39-.72,3,3,0,0,0-2.26.9,3.18,3.18,0,0,0-.88,2.31,3.78,3.78,0,0,0,1,2.62,3,3,0,0,0,2.35,1.07,6.29,6.29,0,0,0,2.88-.86h0Zm7.52-1.37a3,3,0,0,1-1,2.31,3.52,3.52,0,0,1-2.49.94,3.37,3.37,0,0,1-2.4-.9,3,3,0,0,1-1-2.27,3,3,0,0,1,1.23-2.52A3.73,3.73,0,0,1,58.57,12a3.24,3.24,0,0,1,2.28.85,3,3,0,0,1,1,2.32h0Zm-1.35.19a2.61,2.61,0,0,0-.6-1.79,2,2,0,0,0-1.57-.68,1.87,1.87,0,0,0-1.45.61,2.25,2.25,0,0,0-.56,1.58,2.59,2.59,0,0,0,.6,1.76,2.06,2.06,0,0,0,3,.09,2.21,2.21,0,0,0,.57-1.58h0ZM65,18.23H62.85a1.31,1.31,0,0,0,.42-0.47,2.84,2.84,0,0,0,.07-0.83V10.87A3,3,0,0,0,63.28,10a1.36,1.36,0,0,0-.43-0.47h0.91a1,1,0,0,0,.77-0.25v7.61a2.84,2.84,0,0,0,.07.83,1.31,1.31,0,0,0,.42.47h0Zm3.14,0H66a1.31,1.31,0,0,0,.42-0.47,2.84,2.84,0,0,0,.07-0.83V10.87A3,3,0,0,0,66.41,10,1.36,1.36,0,0,0,66,9.57h0.91a1,1,0,0,0,.77-0.25v7.61a2.84,2.84,0,0,0,.07.83,1.31,1.31,0,0,0,.42.47h0Zm7.24-1.4L74.69,18.1a5,5,0,0,1-1.82.31,4,4,0,0,1-2.68-.9,2.92,2.92,0,0,1-1-2.32A3.12,3.12,0,0,1,72.41,12a3,3,0,0,1,2.14.81,2.72,2.72,0,0,1,.85,2.06v0.21H70.57a2.51,2.51,0,0,0,.75,1.8,2.64,2.64,0,0,0,1.88.65,3.73,3.73,0,0,0,2.21-.69h0ZM74,14.25a1.57,1.57,0,0,0-1.67-1.47,1.64,1.64,0,0,0-1.73,1.47H74ZM83.58,12l-0.37.85a0.39,0.39,0,0,1-.37.16,10.73,10.73,0,0,1-1.45-.19,2,2,0,0,1,1,1.63,1.9,1.9,0,0,1-1.5,1.79,6,6,0,0,1-1.31.26Q79,16.6,79,16.84t0.55,0.25a8.89,8.89,0,0,1,2.19.21,2.29,2.29,0,0,1,1.22.8,1.53,1.53,0,0,1,.29,1A2,2,0,0,1,82,20.85a5.17,5.17,0,0,1-2.32.5,5.44,5.44,0,0,1-2.56-.55,1.58,1.58,0,0,1-1-1.35,1,1,0,0,1,.32-0.77,1.33,1.33,0,0,1,.9-0.28,1.79,1.79,0,0,1,.71.16,0.6,0.6,0,0,0-.59.61,1.17,1.17,0,0,0,.6,1,3.06,3.06,0,0,0,1.64.38,3.16,3.16,0,0,0,1.69-.4,1.19,1.19,0,0,0,.64-1q0-1.26-2.67-1.26H78.41a0.9,0.9,0,0,1-.62-0.22A0.93,0.93,0,0,1,77.47,17a0.38,0.38,0,0,1,.19-0.32,5.41,5.41,0,0,1,.85-0.39,2.41,2.41,0,0,1-.95-0.47,2.05,2.05,0,0,1,.06-3.17A2.93,2.93,0,0,1,79.55,12l1.15,0.06q0.7,0,1.26,0A12.75,12.75,0,0,0,83.58,12h0Zm-2.5,2.35a1.51,1.51,0,0,0-.48-1.13,1.63,1.63,0,0,0-1.18-.46,1.38,1.38,0,0,0-1,.36,1.16,1.16,0,0,0-.39.89,1.61,1.61,0,0,0,.5,1.19,1.64,1.64,0,0,0,1.2.49,1.29,1.29,0,0,0,1-.37,1.31,1.31,0,0,0,.37-1h0Zm9,2.49L89.33,18.1a5,5,0,0,1-1.82.31,4,4,0,0,1-2.68-.9,2.92,2.92,0,0,1-1-2.32A3.12,3.12,0,0,1,87.05,12a3,3,0,0,1,2.14.81A2.72,2.72,0,0,1,90,14.86v0.21H85.21a2.51,2.51,0,0,0,.75,1.8,2.64,2.64,0,0,0,1.88.65A3.73,3.73,0,0,0,90,16.84h0Zm-1.38-2.59A1.57,1.57,0,0,0,87,12.78a1.64,1.64,0,0,0-1.73,1.47h3.4Zm12.5,0.91a3,3,0,0,1-1,2.31,3.52,3.52,0,0,1-2.49.94,3.37,3.37,0,0,1-2.4-.9,3,3,0,0,1-1-2.27,3,3,0,0,1,1.23-2.52A3.73,3.73,0,0,1,97.85,12a3.24,3.24,0,0,1,2.28.85,3,3,0,0,1,1,2.32h0Zm-1.35.19a2.61,2.61,0,0,0-.6-1.79,2,2,0,0,0-1.57-.68,1.87,1.87,0,0,0-1.45.61,2.25,2.25,0,0,0-.56,1.58,2.59,2.59,0,0,0,.6,1.76,2.06,2.06,0,0,0,3,.09,2.21,2.21,0,0,0,.57-1.58h0Zm6.65-6-0.93,1a1.21,1.21,0,0,0-.67-0.21,0.89,0.89,0,0,0-.81.39,1.62,1.62,0,0,0-.12.77v0.83h1.33a1.45,1.45,0,0,0,.46-0.07v1.16A0.91,0.91,0,0,0,105,13h-1.1v3.45a3.13,3.13,0,0,0,.19,1.33,1.06,1.06,0,0,0,.37.41h-2.24a1.21,1.21,0,0,0,.42-0.46,2.91,2.91,0,0,0,.07-0.83V13h-0.66l0.66-.87V11.53a2.05,2.05,0,0,1,.72-1.63,3.14,3.14,0,0,1,2.11-.62,5.41,5.41,0,0,1,.9.09h0ZM61.14,40.23H56.85a1.22,1.22,0,0,0,.74-0.82,4.82,4.82,0,0,0-.35-1.16L56,35.1H50.8l-1.17,3.15a3.12,3.12,0,0,0-.23,1.06,1.12,1.12,0,0,0,.74.92h-3.8a3.52,3.52,0,0,0,1-.94,11.2,11.2,0,0,0,.88-1.84l3.64-9.08a2.71,2.71,0,0,0,.23-0.94,0.93,0.93,0,0,0-.63-0.8H54.8l4.35,10.83a8.72,8.72,0,0,0,.9,1.8,3.64,3.64,0,0,0,1.1,1h0ZM55.5,33.77l-2.09-5.4-2.11,5.4H55.5Zm16.74-3.35-0.59,1.33a0.61,0.61,0,0,1-.59.25,16.86,16.86,0,0,1-2.27-.29,3.1,3.1,0,0,1,1.53,2.56q0,2-2.35,2.82a9.46,9.46,0,0,1-2.06.41q-0.82.16-.82,0.53T66,38.43a14,14,0,0,1,3.45.33A3.6,3.6,0,0,1,71.32,40a2.41,2.41,0,0,1,.45,1.51,3.06,3.06,0,0,1-2,2.82,8.12,8.12,0,0,1-3.64.78,8.55,8.55,0,0,1-4-.86,2.49,2.49,0,0,1-1.63-2.11,1.51,1.51,0,0,1,.51-1.2,2.08,2.08,0,0,1,1.41-.44,2.81,2.81,0,0,1,1.12.25,1,1,0,0,0-.92,1,1.84,1.84,0,0,0,.95,1.63,4.8,4.8,0,0,0,2.57.6,5,5,0,0,0,2.65-.63,1.88,1.88,0,0,0,1-1.64q0-2-4.19-2l-1,0-0.47,0a1.41,1.41,0,0,1-1-.35,1.46,1.46,0,0,1-.49-1.12,0.6,0.6,0,0,1,.3-0.5,8.51,8.51,0,0,1,1.34-.62,3.79,3.79,0,0,1-1.49-.74,3.22,3.22,0,0,1,.09-5,4.6,4.6,0,0,1,3-1q0.43,0,1.8.1,1.1,0.08,2,.08a20,20,0,0,0,2.55-.18h0Zm-3.94,3.7a2.37,2.37,0,0,0-.75-1.78,2.57,2.57,0,0,0-1.85-.72,2.17,2.17,0,0,0-1.53.56,1.82,1.82,0,0,0-.61,1.4,2.53,2.53,0,0,0,.78,1.87,2.58,2.58,0,0,0,1.88.77,2,2,0,0,0,1.5-.58,2.05,2.05,0,0,0,.58-1.52h0ZM79.23,32.4a1.37,1.37,0,0,0-1-.33,2,2,0,0,0-1.78.84A3.28,3.28,0,0,0,76,34.79V38.2a4.46,4.46,0,0,0,.12,1.3,2.05,2.05,0,0,0,.67.73H73.4a2.05,2.05,0,0,0,.67-0.73,4.46,4.46,0,0,0,.12-1.3V32.73a4.46,4.46,0,0,0-.12-1.3,2.05,2.05,0,0,0-.67-0.73h1.43A1.61,1.61,0,0,0,76,30.31V32a2.66,2.66,0,0,1,2.47-1.59,4.44,4.44,0,0,1,.72.08v1.9Zm4.19-4.25a1.27,1.27,0,0,1-1.29,1.29,1.23,1.23,0,0,1-.9-0.37,1.25,1.25,0,0,1-.37-0.92,1.21,1.21,0,0,1,.38-0.9,1.28,1.28,0,0,1,.93-0.37,1.19,1.19,0,0,1,.88.38,1.24,1.24,0,0,1,.37.89h0Zm0.47,12.08H80.46a2.05,2.05,0,0,0,.67-0.73,4.46,4.46,0,0,0,.12-1.3V32.73a4.46,4.46,0,0,0-.12-1.3,2.05,2.05,0,0,0-.67-0.73h1.43a1.61,1.61,0,0,0,1.21-.39V38.2a4.46,4.46,0,0,0,.12,1.3,2.05,2.05,0,0,0,.67.73h0Zm11-2.11-1.21,2a7.43,7.43,0,0,1-2.64.37A6,6,0,0,1,87,39.15a4.4,4.4,0,0,1-1.59-3.49,4.92,4.92,0,0,1,1.68-3.76,6,6,0,0,1,4.21-1.47,10.09,10.09,0,0,1,2.25.25v2.13a3.54,3.54,0,0,0-2.58-1,3.41,3.41,0,0,0-2.51.93,3.33,3.33,0,0,0-.94,2.48A3.63,3.63,0,0,0,88.75,38a4.3,4.3,0,0,0,3,1.11,5.82,5.82,0,0,0,3.15-1h0Zm10.69,2.11h-2.56V38.88a4.91,4.91,0,0,1-1.37,1.28,3.37,3.37,0,0,1-1.62.34A3.44,3.44,0,0,1,97,39.06a4.76,4.76,0,0,1-.59-2.62v-3.7a4.46,4.46,0,0,0-.12-1.3,2.05,2.05,0,0,0-.67-0.73H97a1.64,1.64,0,0,0,1.23-.39v5.76a3.28,3.28,0,0,0,.51,2.06,2.22,2.22,0,0,0,1.84.78,2.31,2.31,0,0,0,1.73-.68,2.46,2.46,0,0,0,.66-1.79v-3.7a4.58,4.58,0,0,0-.12-1.31,1.9,1.9,0,0,0-.67-0.72h1.45a1.58,1.58,0,0,0,1.19-.39V38.2a4.46,4.46,0,0,0,.12,1.3,2.05,2.05,0,0,0,.67.73h0Zm4.93,0h-3.43a2.05,2.05,0,0,0,.67-0.73,4.46,4.46,0,0,0,.12-1.3V28.66a4.72,4.72,0,0,0-.11-1.3,2.13,2.13,0,0,0-.68-0.73h1.43a1.61,1.61,0,0,0,1.21-.39v12a4.46,4.46,0,0,0,.12,1.3,2.05,2.05,0,0,0,.67.73h0Zm7.38-1.31-1.08,1.47a2.34,2.34,0,0,1-.74.12,2.81,2.81,0,0,1-2.11-.9,2.75,2.75,0,0,1-.69-1.39,13.66,13.66,0,0,1-.06-1.59V32.07h-1.41V31.33a2.83,2.83,0,0,0,1.7-.9,3.69,3.69,0,0,0,.76-2.55V27.63h0.8V30.7h1.61a4.07,4.07,0,0,0,1.21-.12v1.86a1.93,1.93,0,0,0-1.29-.37h-1.53v4.39a3.35,3.35,0,0,0,.37,1.94,1.92,1.92,0,0,0,1.59.7,2.36,2.36,0,0,0,.86-0.18h0Zm10.94,1.31h-2.56V38.88a4.91,4.91,0,0,1-1.37,1.28,3.37,3.37,0,0,1-1.62.34,3.44,3.44,0,0,1-3.09-1.45,4.76,4.76,0,0,1-.59-2.62v-3.7a4.46,4.46,0,0,0-.12-1.3,2.05,2.05,0,0,0-.67-0.73h1.41a1.64,1.64,0,0,0,1.23-.39v5.76a3.28,3.28,0,0,0,.51,2.06,2.22,2.22,0,0,0,1.84.78,2.31,2.31,0,0,0,1.73-.68,2.46,2.46,0,0,0,.66-1.79v-3.7a4.58,4.58,0,0,0-.12-1.31,1.9,1.9,0,0,0-.67-0.72h1.45a1.58,1.58,0,0,0,1.19-.39V38.2a4.46,4.46,0,0,0,.12,1.3,2.05,2.05,0,0,0,.67.73h0Zm7.42-7.83a1.37,1.37,0,0,0-1-.33,2,2,0,0,0-1.78.84,3.28,3.28,0,0,0-.43,1.88V38.2a4.46,4.46,0,0,0,.12,1.3,2.05,2.05,0,0,0,.67.73h-3.43a2.05,2.05,0,0,0,.67-0.73,4.46,4.46,0,0,0,.12-1.3V32.73a4.46,4.46,0,0,0-.12-1.3,2.05,2.05,0,0,0-.67-0.73h1.43a1.61,1.61,0,0,0,1.21-.39V32a2.66,2.66,0,0,1,2.47-1.59,4.44,4.44,0,0,1,.72.08v1.9ZM146.58,39l-0.9,1.35a4.32,4.32,0,0,1-1.93-.46,1.52,1.52,0,0,1-.69-0.95,5.27,5.27,0,0,1-.1-1.23V35.06a15.23,15.23,0,0,1-2.64.78,1.6,1.6,0,0,0-1.49,1.59,1.48,1.48,0,0,0,.58,1.23,2.57,2.57,0,0,0,1.62.45,5.3,5.3,0,0,0,1.55-.27l-1.21,1.55a5.41,5.41,0,0,1-1.14.12,3.54,3.54,0,0,1-2.45-.8,3,3,0,0,1-1.06-2.29,2.2,2.2,0,0,1,1.16-2.08,10.17,10.17,0,0,1,2.72-.8,6.14,6.14,0,0,0,1.85-.55,1,1,0,0,0,.48-0.86,1.1,1.1,0,0,0-.55-0.95,2.55,2.55,0,0,0-1.43-.36,7,7,0,0,0-2.82.82l1.37-2.08a7.27,7.27,0,0,1,1.43-.14q2.62,0,3.48,1.39a5.13,5.13,0,0,1,.41,2.47v2.66a5.69,5.69,0,0,0,.06,1.06,1.24,1.24,0,0,0,.61.78,2.36,2.36,0,0,0,1.1.23h0Zm4.29,1.21h-3.43a2.05,2.05,0,0,0,.67-0.73,4.46,4.46,0,0,0,.12-1.3V28.66a4.72,4.72,0,0,0-.11-1.3,2.13,2.13,0,0,0-.68-0.73h1.43a1.61,1.61,0,0,0,1.21-.39v12a4.46,4.46,0,0,0,.12,1.3,2.05,2.05,0,0,0,.67.73h0Zm23.1,0q-1.51.06-2.31,0.06a4.52,4.52,0,0,1-2.07-.46,11.29,11.29,0,0,1-2.3-1.73A5.51,5.51,0,0,1,165.44,40a5.78,5.78,0,0,1-5.84-.55,3.59,3.59,0,0,1-1.29-2.88,4,4,0,0,1,.63-2.2,9.85,9.85,0,0,1,2.21-2.24,9,9,0,0,1-1.3-1.62,2.67,2.67,0,0,1-.36-1.34,2.5,2.5,0,0,1,.95-2,3.45,3.45,0,0,1,2.32-.81,3,3,0,0,1,2.13.78,2.61,2.61,0,0,1,.84,2,2.83,2.83,0,0,1-.36,1.46,8,8,0,0,1-1.46,1.62q3.76,3.7,5.79,5.32A23,23,0,0,0,174,40.23h0Zm-9.91-11.32a1.18,1.18,0,0,0-.41-0.93,1.51,1.51,0,0,0-1-.36,1.42,1.42,0,0,0-1,.33,1.09,1.09,0,0,0-.38.86A3.51,3.51,0,0,0,162.73,31a2.76,2.76,0,0,0,1.33-2.08h0Zm2.39,8.44a46.23,46.23,0,0,1-4.07-4,3.83,3.83,0,0,0-1.88,3.05,2.51,2.51,0,0,0,.79,1.92,2.87,2.87,0,0,0,2,.74,3.77,3.77,0,0,0,3.11-1.72h0Zm22.63,0.14L188,40.23h-8.44a1.63,1.63,0,0,0,.84-1.16,8.68,8.68,0,0,0,.08-1.49V29.27a8.68,8.68,0,0,0-.08-1.49,1.63,1.63,0,0,0-.84-1.16h3.92a1.63,1.63,0,0,0-.84,1.16,8.68,8.68,0,0,0-.08,1.49v9.28a18.92,18.92,0,0,0,2.78.22,6.05,6.05,0,0,0,1.93-.27,7.29,7.29,0,0,0,1.83-1h0Zm4-9.34a1.27,1.27,0,0,1-1.29,1.29,1.23,1.23,0,0,1-.9-0.37,1.25,1.25,0,0,1-.37-0.92,1.21,1.21,0,0,1,.38-0.9,1.28,1.28,0,0,1,.93-0.37,1.19,1.19,0,0,1,.88.38,1.24,1.24,0,0,1,.37.89h0Zm0.47,12.08h-3.43a2.05,2.05,0,0,0,.67-0.73,4.46,4.46,0,0,0,.12-1.3V32.73a4.46,4.46,0,0,0-.12-1.3,2.05,2.05,0,0,0-.67-0.73h1.43a1.61,1.61,0,0,0,1.21-.39V38.2a4.46,4.46,0,0,0,.12,1.3,2.05,2.05,0,0,0,.67.73h0Zm8.32-13.94-1.47,1.61a1.91,1.91,0,0,0-1.06-.33,1.4,1.4,0,0,0-1.27.61,2.54,2.54,0,0,0-.2,1.21V30.7H200a2.28,2.28,0,0,0,.72-0.12V32.4a1.43,1.43,0,0,0-1.1-.33h-1.72v5.42a4.93,4.93,0,0,0,.29,2.09,1.67,1.67,0,0,0,.59.65h-3.52a1.9,1.9,0,0,0,.67-0.72A4.58,4.58,0,0,0,196,38.2V32.07h-1l1-1.37v-1a3.22,3.22,0,0,1,1.14-2.56,4.93,4.93,0,0,1,3.31-1,8.51,8.51,0,0,1,1.41.14h0ZM211.26,38l-1.12,2a7.91,7.91,0,0,1-2.86.49,6.23,6.23,0,0,1-4.22-1.41,4.59,4.59,0,0,1-1.63-3.64,4.9,4.9,0,0,1,5.13-5,4.68,4.68,0,0,1,3.37,1.27,4.28,4.28,0,0,1,1.33,3.23v0.33h-7.6a3.94,3.94,0,0,0,1.17,2.83,4.15,4.15,0,0,0,3,1A5.87,5.87,0,0,0,211.26,38h0ZM209.09,34a2.47,2.47,0,0,0-2.62-2.31A2.58,2.58,0,0,0,203.74,34h5.34Zm18.66,2.29a3.81,3.81,0,0,1-1.27,2.8,6,6,0,0,1-4.33,1.53,10.61,10.61,0,0,1-3.64-.65l-0.63-2.56A7.21,7.21,0,0,0,222.42,39a3.82,3.82,0,0,0,2.2-.61,1.78,1.78,0,0,0,.89-1.51,1.89,1.89,0,0,0-.69-1.47A13,13,0,0,0,222.17,34a12,12,0,0,1-2.85-1.64,3.21,3.21,0,0,1,.32-5.05,6.33,6.33,0,0,1,3.75-1,11.64,11.64,0,0,1,3.15.45v2.35a4.54,4.54,0,0,0-3.27-1.35,3.31,3.31,0,0,0-2,.54,1.68,1.68,0,0,0-.16,2.68,11.83,11.83,0,0,0,2.46,1.38,16,16,0,0,1,3,1.66,2.75,2.75,0,0,1,1.12,2.25h0Zm11,1.86-1.21,2a7.43,7.43,0,0,1-2.64.37,6,6,0,0,1-4.05-1.36,4.4,4.4,0,0,1-1.59-3.49A4.92,4.92,0,0,1,231,31.89a6,6,0,0,1,4.21-1.47,10.09,10.09,0,0,1,2.25.25v2.13a3.54,3.54,0,0,0-2.58-1,3.41,3.41,0,0,0-2.51.93,3.33,3.33,0,0,0-.94,2.48,3.63,3.63,0,0,0,1.2,2.79,4.3,4.3,0,0,0,3,1.11,5.82,5.82,0,0,0,3.15-1h0Zm3.7-10a1.27,1.27,0,0,1-1.29,1.29,1.23,1.23,0,0,1-.9-0.37,1.25,1.25,0,0,1-.37-0.92,1.21,1.21,0,0,1,.38-0.9,1.28,1.28,0,0,1,.93-0.37,1.19,1.19,0,0,1,.88.38,1.24,1.24,0,0,1,.37.89h0ZM243,40.23h-3.43a2.05,2.05,0,0,0,.67-0.73,4.46,4.46,0,0,0,.12-1.3V32.73a4.46,4.46,0,0,0-.12-1.3,2.05,2.05,0,0,0-.67-0.73H241a1.61,1.61,0,0,0,1.21-.39V38.2a4.46,4.46,0,0,0,.12,1.3,2.05,2.05,0,0,0,.67.73h0ZM254.33,38l-1.12,2a7.91,7.91,0,0,1-2.86.49,6.23,6.23,0,0,1-4.22-1.41,4.59,4.59,0,0,1-1.63-3.64,4.9,4.9,0,0,1,5.13-5A4.68,4.68,0,0,1,253,31.7a4.28,4.28,0,0,1,1.33,3.23v0.33h-7.6a3.94,3.94,0,0,0,1.17,2.83,4.15,4.15,0,0,0,3,1A5.87,5.87,0,0,0,254.33,38h0ZM252.16,34a2.47,2.47,0,0,0-2.62-2.31A2.58,2.58,0,0,0,246.81,34h5.34ZM266,40.23h-3.45a2.13,2.13,0,0,0,.68-0.74,4.14,4.14,0,0,0,.13-1.29V34.91a3.54,3.54,0,0,0-.45-2.08,2.47,2.47,0,0,0-2.08-.88,2.8,2.8,0,0,0-1.23.29,1.77,1.77,0,0,0-.86.82,2.53,2.53,0,0,0-.14,1V38.2a4.46,4.46,0,0,0,.12,1.3,2.05,2.05,0,0,0,.67.73h-3.43a2.05,2.05,0,0,0,.67-0.73,4.46,4.46,0,0,0,.12-1.3V32.73a4.46,4.46,0,0,0-.12-1.3,2.05,2.05,0,0,0-.67-0.73h1.33a1.61,1.61,0,0,0,1.21-.39V32a4,4,0,0,1,3.05-1.61,4.33,4.33,0,0,1,2,.47,2.81,2.81,0,0,1,1.41,1.45,7.3,7.3,0,0,1,.25,2.35v3.5a4.46,4.46,0,0,0,.12,1.3,2.05,2.05,0,0,0,.67.73h0Zm11-2.11-1.21,2a7.43,7.43,0,0,1-2.64.37,6,6,0,0,1-4.05-1.36,4.4,4.4,0,0,1-1.59-3.49,4.92,4.92,0,0,1,1.68-3.76,6,6,0,0,1,4.21-1.47,10.09,10.09,0,0,1,2.25.25v2.13a3.54,3.54,0,0,0-2.58-1,3.41,3.41,0,0,0-2.51.93,3.33,3.33,0,0,0-.94,2.48,3.63,3.63,0,0,0,1.2,2.79,4.3,4.3,0,0,0,3,1.11,5.82,5.82,0,0,0,3.15-1h0ZM287.53,38l-1.12,2a7.91,7.91,0,0,1-2.86.49,6.23,6.23,0,0,1-4.22-1.41,4.59,4.59,0,0,1-1.63-3.64,4.9,4.9,0,0,1,5.13-5,4.68,4.68,0,0,1,3.37,1.27,4.28,4.28,0,0,1,1.33,3.23v0.33h-7.6a3.94,3.94,0,0,0,1.17,2.83,4.15,4.15,0,0,0,3,1A5.87,5.87,0,0,0,287.53,38h0ZM285.36,34a2.47,2.47,0,0,0-2.62-2.31A2.58,2.58,0,0,0,280,34h5.34Zm11.59,3.33a2.72,2.72,0,0,1-1.24,2.34,5.68,5.68,0,0,1-3.32.87,7.82,7.82,0,0,1-2.78-.51l-0.7-2a7.48,7.48,0,0,0,3.86,1.27,2.88,2.88,0,0,0,1.6-.41,1.21,1.21,0,0,0,.64-1,1.08,1.08,0,0,0-.47-0.94,10,10,0,0,0-2-.84,7.56,7.56,0,0,1-2.44-1.22,2,2,0,0,1-.66-1.58,2.34,2.34,0,0,1,1.08-2,5.23,5.23,0,0,1,3-.73,8.63,8.63,0,0,1,2.31.27v1.76a5,5,0,0,0-2.55-.8,2.6,2.6,0,0,0-1.37.32,1,1,0,0,0-.53.83,0.91,0.91,0,0,0,.48.75,7.33,7.33,0,0,0,1.71.71,7.68,7.68,0,0,1,2.58,1.21,2.33,2.33,0,0,1,.8,1.8h0Z" transform="translate(-0.05 -0.26)"/></g></g></g></svg>